<svg width="275" height="100" viewBox="0 0 275 100" fill="none" xmlns="http://www.w3.org/2000/svg">
<circle cx="50" cy="50" r="50" fill="#003366"/>
<path d="M57.829 21L91.4061 50.8235L57 78.9941" stroke="white" stroke-width="3" stroke-miterlimit="3.8637" stroke-linecap="round"/>
<path d="M40.829 21L74.4061 50.8235L40 78.9941" stroke="white" stroke-width="3" stroke-miterlimit="3.8637" stroke-linecap="round"/>
<path d="M23.829 21L57.4061 50.8235L23 78.9941" stroke="white" stroke-width="3" stroke-miterlimit="3.8637" stroke-linecap="round"/>
<path d="M131.051 66L135.881 36.9091H146.79C149.025 36.9091 150.833 37.3258 152.216 38.1591C153.598 38.983 154.56 40.1241 155.099 41.5824C155.639 43.0312 155.753 44.6837 155.44 46.5398C155.137 48.4053 154.47 50.0625 153.438 51.5114C152.415 52.9602 151.065 54.1013 149.389 54.9347C147.713 55.7585 145.753 56.1705 143.509 56.1705H136.278L137.003 51.8381H143.523C144.83 51.8381 145.938 51.6108 146.847 51.1562C147.765 50.7017 148.49 50.0767 149.02 49.2812C149.55 48.4858 149.901 47.572 150.071 46.5398C150.232 45.5076 150.18 44.5985 149.915 43.8125C149.65 43.0265 149.134 42.4157 148.366 41.9801C147.609 41.535 146.572 41.3125 145.256 41.3125H140.426L136.321 66H131.051ZM156.527 66L160.163 44.1818H165.305L161.669 66H156.527ZM163.487 41.0568C162.663 41.0568 161.982 40.7822 161.442 40.233C160.902 39.6837 160.665 39.0256 160.732 38.2585C160.798 37.4915 161.143 36.8333 161.768 36.2841C162.403 35.7348 163.127 35.4602 163.942 35.4602C164.766 35.4602 165.443 35.7348 165.973 36.2841C166.513 36.8333 166.75 37.4915 166.683 38.2585C166.626 39.0256 166.281 39.6837 165.646 40.233C165.021 40.7822 164.302 41.0568 163.487 41.0568ZM181.488 44.1818L180.82 48.1591H168.292L168.945 44.1818H181.488ZM172.894 38.9545H178.036L174.627 59.4375C174.523 60.1288 174.542 60.6591 174.684 61.0284C174.835 61.3883 175.077 61.6345 175.408 61.767C175.749 61.8996 176.133 61.9659 176.559 61.9659C176.871 61.9659 177.165 61.9422 177.44 61.8949C177.714 61.8381 177.932 61.7955 178.093 61.767L178.32 65.7869C178.008 65.8816 177.586 65.9858 177.056 66.0994C176.535 66.2131 175.91 66.2794 175.181 66.2983C173.874 66.3267 172.738 66.1278 171.772 65.7017C170.816 65.2661 170.115 64.5985 169.67 63.6989C169.234 62.7898 169.135 61.6534 169.371 60.2898L172.894 38.9545ZM191.378 66.4261C189.2 66.4261 187.41 65.9479 186.009 64.9915C184.607 64.035 183.627 62.714 183.068 61.0284C182.519 59.3333 182.429 57.3826 182.798 55.1761C183.158 52.9602 183.902 51.0047 185.028 49.3097C186.165 47.6051 187.595 46.2794 189.318 45.3324C191.042 44.3759 192.969 43.8977 195.099 43.8977C196.87 43.8977 198.381 44.2244 199.631 44.8778C200.89 45.5218 201.828 46.4356 202.443 47.6193C203.068 48.7936 203.31 50.1667 203.168 51.7386H198.239C198.22 50.6875 197.893 49.8116 197.259 49.1108C196.624 48.4006 195.696 48.0455 194.474 48.0455C193.414 48.0455 192.438 48.3295 191.548 48.8977C190.658 49.4564 189.905 50.2614 189.29 51.3125C188.674 52.3636 188.248 53.6231 188.011 55.0909C187.765 56.5777 187.77 57.8561 188.026 58.9261C188.291 59.9867 188.769 60.8059 189.46 61.3835C190.161 61.9517 191.046 62.2358 192.116 62.2358C192.874 62.2358 193.58 62.0937 194.233 61.8097C194.886 61.5161 195.459 61.0947 195.952 60.5455C196.454 59.9962 196.847 59.3286 197.131 58.5426H202.045C201.657 60.0862 200.966 61.4545 199.972 62.6477C198.987 63.8314 197.765 64.7595 196.307 65.4318C194.848 66.0947 193.205 66.4261 191.378 66.4261ZM212.276 53.2159L210.174 66H205.018L209.847 36.9091H214.89L213.072 47.8892H213.342C214.033 46.6487 214.975 45.6733 216.168 44.9631C217.371 44.2528 218.815 43.8977 220.501 43.8977C221.997 43.8977 223.256 44.215 224.279 44.8494C225.302 45.4839 226.022 46.4119 226.438 47.6335C226.864 48.8551 226.935 50.3466 226.651 52.108L224.322 66H219.165L221.353 52.9034C221.59 51.4356 221.396 50.2945 220.771 49.4801C220.155 48.6562 219.18 48.2443 217.844 48.2443C216.926 48.2443 216.078 48.4432 215.302 48.8409C214.525 49.2292 213.872 49.7926 213.342 50.5312C212.821 51.2699 212.466 52.1648 212.276 53.2159ZM249.783 36.9091L244.954 66H239.684L244.513 36.9091H249.783ZM264.964 44.1818L264.297 48.1591H251.768L252.422 44.1818H264.964ZM256.371 38.9545H261.513L258.104 59.4375C258 60.1288 258.018 60.6591 258.161 61.0284C258.312 61.3883 258.554 61.6345 258.885 61.767C259.226 61.8996 259.609 61.9659 260.036 61.9659C260.348 61.9659 260.642 61.9422 260.916 61.8949C261.191 61.8381 261.409 61.7955 261.57 61.767L261.797 65.7869C261.484 65.8816 261.063 65.9858 260.533 66.0994C260.012 66.2131 259.387 66.2794 258.658 66.2983C257.351 66.3267 256.214 66.1278 255.249 65.7017C254.292 65.2661 253.591 64.5985 253.146 63.6989C252.711 62.7898 252.611 61.6534 252.848 60.2898L256.371 38.9545Z" fill="black"/>
</svg>
